Coordinates
version=1
nRows=14
nColumns=42
inDegrees=yes

Units are S.I. units (second, meters, Newtons, ...)
If the header above contains a line with 'inDegrees', this indicates whether rotational values are in degrees (yes) or radians (no).

endheader
time	pelvis_tilt	pelvis_list	pelvis_rotation	pelvis_tx	pelvis_ty	pelvis_tz	hip_flexion_r	hip_adduction_r	hip_rotation_r	knee_angle_r	knee_adduction_r	knee_angle_r_beta	ankle_angle_r	subtalar_angle_r	mtp_angle_r	hip_flexion_l	hip_adduction_l	hip_rotation_l	knee_angle_l	knee_adduction_l	knee_angle_l_beta	ankle_angle_l	subtalar_angle_l	mtp_angle_l	lumbar_extension	lumbar_bending	lumbar_rotation	arm_flex_r	arm_add_r	arm_rot_r	elbow_flex_r	pro_sup_r	wrist_flex_r	wrist_dev_r	arm_flex_l	arm_add_l	arm_rot_l	elbow_flex_l	pro_sup_l	wrist_flex_l	wrist_dev_l
      0.72000000	      6.94984311	     -0.98917477	     -2.78583034	     -1.91337588	      0.88477424	      0.20016874	     -7.36269111	      7.67237780	    -21.06480584	     12.15977530	     -7.56205877	      0.21222812	     18.28216485	     26.52982374	     -7.59278203	     20.73988634	     -1.17856973	     -1.92633879	     55.01066198	      1.06020973	      0.96011718	      9.73092477	    -15.32816624	     -7.59278203	    -22.23705363	      0.64756824	      9.78197314	     15.14562641	    -24.84084890	     19.98803245	     48.93513814	     90.00000001	      0.00000000	      0.00000000	      0.90319624	    -17.56160587	     29.15255653	     33.70934961	     90.00000001	      0.00000000	      0.00000000
      0.73000000	      7.28149980	     -0.96469973	     -3.11049064	     -1.90121696	      0.88443444	      0.20154623	     -8.99798994	      7.54875129	    -21.05337699	     11.55620385	     -7.27284662	      0.20169381	     18.61204749	     27.29145590	     -7.58954333	     20.84632843	     -0.96641552	     -2.56271037	     51.38745683	      0.70113545	      0.89688032	      9.56344724	    -15.04372320	     -7.58954333	    -22.60628934	      0.52395920	     10.14960315	     15.92140863	    -25.21639121	     19.96768199	     49.83120193	     90.00000001	      0.00000000	      0.00000000	     -0.20005743	    -17.42726351	     29.31275771	     33.63918047	     90.00000001	      0.00000000	      0.00000000
      0.74000000	      7.45103057	     -0.98563534	     -3.37256296	     -1.88923085	      0.88354656	      0.20279331	    -10.30382508	      7.53479538	    -21.07434125	     11.16753223	     -7.16690362	      0.19491021	     19.01248837	     27.83286406	     -7.58612566	     21.07395879	     -0.78643194	     -3.29078295	     47.62389976	      0.19996478	      0.83119385	      9.42859941	    -14.54655646	     -7.58612566	    -22.82097027	      0.48063103	     10.46080753	     16.71549742	    -25.54174063	     19.95898825	     50.63389652	     90.00000001	      0.00000000	      0.00000000	     -1.29803530	    -17.26587879	     29.42505866	     33.59174831	     90.00000001	      0.00000000	      0.00000000
      0.75000000	      7.50128178	     -1.07175641	     -3.59512092	     -1.87732275	      0.88222419	      0.20396280	    -11.37647904	      7.61468851	    -21.00530519	     10.96854481	     -7.11639432	      0.19143722	     19.48021027	     28.10630101	     -7.58324736	     21.32011934	     -0.68484530	     -3.93248847	     43.67363324	     -0.24833842	      0.76224870	      9.35262533	    -13.83959805	     -7.58324736	    -22.91703248	      0.52330478	     10.74968812	     17.49395098	    -25.83807858	     19.95191660	     51.37605077	     90.00000001	      0.00000000	      0.00000000	     -2.36467347	    -17.07941035	     29.45930604	     33.52509959	     90.00000001	      0.00000000	      0.00000000
      0.76000000	      7.57143724	     -1.17898670	     -3.73788448	     -1.86537101	      0.88073889	      0.20491357	    -12.42071563	      7.71196894	    -21.01405885	     10.87208201	     -7.08596413	      0.18975363	     19.91721785	     28.27833273	     -7.58042930	     21.41538465	     -0.53959004	     -4.66315273	     39.53621206	     -0.83299752	      0.69003707	      9.26341463	    -12.95474052	     -7.58042930	    -23.04281472	      0.61233766	     10.93598803	     18.28574202	    -26.09083657	     19.98385965	     52.02966823	     90.00000001	      0.00000000	      0.00000000	     -3.43321328	    -16.88807346	     29.43252708	     33.48579352	     90.00000001	      0.00000000	      0.00000000
      0.77000000	      7.65182762	     -1.30039746	     -3.81417322	     -1.85335141	      0.87907696	      0.20563726	    -13.41956099	      7.80859316	    -21.10878966	     10.89735445	     -7.07101349	      0.19019471	     20.33936626	     28.37857363	     -7.57712813	     21.38955100	     -0.34444648	     -5.43647406	     35.29824163	     -1.49091733	      0.61607054	      9.21888774	    -11.79212955	     -7.57712813	    -23.17208082	      0.74458758	     11.04060596	     19.08583732	    -26.31905290	     20.05157873	     52.60533826	     90.00000001	      0.00000000	      0.00000000	     -4.49119744	    -16.69681446	     29.31794927	     33.50106929	     90.00000001	      0.00000000	      0.00000000
      0.78000000	      7.50603040	     -1.53322202	     -3.85563572	     -1.84153124	      0.87690125	      0.20637681	    -14.02993114	      8.10107436	    -21.08871216	     11.14246866	     -7.18540950	      0.19447276	     20.79644918	     28.26284475	     -7.57474407	     21.58040935	     -0.34008091	     -5.84265031	     31.15534792	     -1.84004179	      0.54376340	      9.14137486	    -10.41012747	     -7.57474407	    -23.07808592	      1.01030961	     11.15628184	     19.84112614	    -26.49227281	     20.07960523	     53.07595122	     90.00000001	      0.00000000	      0.00000000	     -5.48450976	    -16.47867554	     29.23531424	     33.46340247	     90.00000001	      0.00000000	      0.00000000
      0.79000000	      7.09532789	     -1.95653295	     -3.75763231	     -1.82985293	      0.87405346	      0.20696996	    -14.25604452	      8.84258768	    -21.14557995	     11.41058358	     -7.72623938	      0.19915225	     21.11276871	     27.97489387	     -7.57329249	     22.25749346	     -0.49194126	     -6.31484218	     27.54112554	     -2.36029012	      0.48068332	      9.03649604	     -9.27843325	     -7.57329249	    -22.71650030	      1.53095588	     11.25951170	     20.48944465	    -26.67012209	     20.02987356	     53.45090078	     90.00000001	      0.00000000	      0.00000000	     -6.42435211	    -16.25634576	     29.21773591	     33.52334874	     90.00000001	      0.00000000	      0.00000000
      0.80000000	      6.99831648	     -2.14815257	     -3.75192103	     -1.81781121	      0.87183127	      0.20745963	    -14.84532347	      9.03773669	    -21.18270918	     11.85976025	     -7.82871939	      0.20699186	     21.55553513	     27.76448409	     -7.57161614	     22.11829976	     -0.36652471	     -6.42003642	     23.42700549	     -2.59616283	      0.40887838	      8.86727904	     -7.43369396	     -7.57161614	    -22.64567852	      1.76772992	     11.25510584	     21.23111786	    -26.72279416	     20.07737676	     53.76149518	     90.00000001	      0.00000000	      0.00000000	     -7.33428233	    -16.06794546	     29.11868218	     33.47294469	     90.00000001	      0.00000000	      0.00000000
      0.81000000	      7.34638043	     -2.12222418	     -3.67849910	     -1.80511608	      0.87024782	      0.20737020	    -16.08428856	      8.70731735	    -21.54471418	     12.21067898	     -7.49186341	      0.21311655	     21.94858010	     27.89582671	     -7.56872894	     21.35539823	      0.16093208	     -6.83813004	     19.48144795	     -3.06154244	      0.34001541	      8.84032697	     -5.28993082	     -7.56872894	    -22.99308775	      1.78870884	     11.02495373	     21.96505240	    -26.72778749	     20.19566464	     54.03108023	     90.00000001	      0.00000000	      0.00000000	     -8.24054257	    -15.86907299	     28.85669637	     33.49681385	     90.00000001	      0.00000000	      0.00000000
      0.82000000	      7.17224349	     -2.36231707	     -3.59218855	     -1.79289669	      0.86775081	      0.20758839	    -16.50774662	      8.94912481	    -21.76658006	     12.80449325	     -7.68736534	      0.22348057	     22.27003146	     27.86967285	     -7.56605635	     21.48814647	      0.23638228	     -7.00425731	     16.52469454	     -3.31722574	      0.28841033	      8.68699867	     -3.41114194	     -7.56605635	    -22.81654014	      2.09486928	     10.94631117	     22.53546112	    -26.71096019	     20.15000978	     54.19616422	     90.00000001	      0.00000000	      0.00000000	     -9.02665513	    -15.67612931	     28.77703647	     33.48615774	     90.00000001	      0.00000000	      0.00000000
      0.83000000	      6.81563425	     -2.68362335	     -3.54578263	     -1.78075514	      0.86499851	      0.20804005	    -16.64720183	      9.41462397	    -21.76709975	     13.46833325	     -8.15171631	      0.23506676	     22.43788535	     27.67515667	     -7.56471755	     21.99861147	      0.11326831	     -7.09060147	     14.41105400	     -3.42588589	      0.25152034	      8.39859683	     -2.08684169	     -7.56471755	    -22.45147937	      2.45992787	     10.94953325	     22.97465075	    -26.65883242	     20.02570670	     54.31221498	     90.00000001	      0.00000000	      0.00000000	     -9.71746660	    -15.52677630	     28.83175074	     33.49413572	     90.00000001	      0.00000000	      0.00000000
      0.84000000	      6.89254888	     -2.72603793	     -3.55875365	     -1.76789144	      0.86297493	      0.20817305	    -17.32681082	      9.20202575	    -22.23578988	     14.22103936	     -8.20657517	      0.24820396	     22.72744198	     28.46503857	     -7.55829628	     21.96322350	      0.34867596	     -7.84368812	     12.76851756	     -3.71826973	      0.22285267	      8.65646673	      0.50223835	     -7.55829628	    -22.47651450	      2.49244815	     10.87449508	     23.33369246	    -26.54124846	     19.82684155	     54.46426607	     90.00000001	      0.00000000	      0.00000000	    -10.35259275	    -15.45580249	     29.07266997	     33.55235466	     90.00000001	      0.00000000	      0.00000000
      0.85000000	      6.68142931	     -2.89935851	     -3.50266286	     -1.75516961	      0.86055914	      0.20832489	    -17.69383295	      9.37288482	    -22.11507344	     14.89895337	     -8.47256178	      0.26003579	     22.66785459	     28.14378825	     -7.55764624	     22.49053162	      0.42397270	     -7.93391209	     12.23373992	     -3.83822446	      0.21351904	      8.62071237	      0.84898292	     -7.55764624	    -22.21377703	      2.68283246	     10.72731161	     23.58969145	    -26.45353958	     19.64954293	     54.61144388	     90.00000001	      0.00000000	      0.00000000	    -10.91766944	    -15.33380239	     29.17365156	     33.46193100	     90.00000001	      0.00000000	      0.00000000
